<?xml version="1.0" standalone="no"?>
<!DOCTYPE svg PUBLIC "-//W3C//DTD SVG 20010904//EN"
 "http://www.w3.org/TR/2001/REC-SVG-20010904/DTD/svg10.dtd">
<svg version="1.0" xmlns="http://www.w3.org/2000/svg"
 width="345.000000pt" height="345.000000pt" viewBox="0 0 345.000000 345.000000"
 preserveAspectRatio="xMidYMid meet">
<metadata>
Created by potrace 1.14, written by Peter Selinger 2001-2017
</metadata>
<g transform="translate(0.000000,345.000000) scale(0.100000,-0.100000)"
fill="#000000" stroke="none">
<path d="M1366 3303 c-3 -4 -32 -8 -64 -9 -83 -3 -237 -14 -259 -18 -10 -2
-46 -8 -78 -12 -33 -4 -62 -8 -65 -9 -3 -1 -25 -5 -50 -9 -25 -5 -54 -10 -65
-13 -11 -2 -30 -6 -42 -9 -47 -9 -98 -31 -97 -40 1 -5 5 -36 9 -69 3 -33 8
-73 10 -90 2 -16 7 -57 10 -90 8 -70 13 -116 20 -165 5 -32 11 -96 19 -173 3
-36 -5 -40 -39 -23 -27 14 -31 14 -72 1 -25 -8 -54 -73 -46 -103 4 -16 -1 -23
-20 -27 -34 -9 -57 -36 -62 -73 -5 -42 25 -79 76 -92 l41 -11 -34 -33 c-36
-35 -44 -66 -27 -107 13 -34 50 -53 87 -46 26 5 31 3 36 -19 4 -13 18 -34 31
-46 21 -18 26 -46 6 -34 -4 3 -23 1 -42 -4 -19 -5 -47 -12 -64 -15 -16 -3 -55
-12 -85 -20 -30 -9 -64 -18 -74 -20 -93 -21 -191 -69 -220 -108 -18 -24 -18
-28 -3 -51 14 -21 45 -36 145 -71 10 -4 12 -17 7 -53 -9 -69 -23 -129 -40
-169 l-15 -36 42 7 c24 4 53 14 65 22 28 18 43 18 43 0 0 -8 -13 -17 -28 -21
-30 -6 -81 -53 -102 -94 -6 -13 -12 -45 -12 -72 1 -92 62 -160 158 -176 l47
-8 2 -125 c2 -164 22 -237 101 -362 13 -20 20 -38 16 -40 -4 -2 -57 -64 -116
-138 -161 -199 -151 -191 -195 -176 -78 28 -189 0 -242 -60 -25 -29 -58 -91
-52 -98 4 -3 674 -6 1490 -6 l1483 0 30 33 c41 43 112 143 138 192 26 49 64
135 66 150 1 5 4 15 8 20 26 43 66 255 73 395 2 36 4 68 4 73 1 4 18 14 40 23
44 18 61 47 50 88 -6 20 -4 33 7 43 16 16 18 61 4 83 -6 10 -4 23 7 40 22 32
25 88 7 122 -26 51 -78 70 -146 55 -18 -4 -28 -1 -29 6 -3 59 -10 100 -19 116
-19 37 -13 49 25 48 71 -2 104 73 61 136 -28 40 -25 47 18 47 43 0 74 24 82
64 8 46 -1 68 -36 89 -16 10 -27 23 -25 30 21 60 6 106 -43 126 -38 16 -112
-4 -112 -29 0 -6 -6 -10 -13 -10 -8 0 -12 11 -11 28 3 64 -29 101 -88 102 -29
0 -42 -7 -64 -32 -15 -18 -30 -32 -34 -31 -75 22 -129 -8 -130 -70 0 -30 28
-87 43 -87 4 0 5 -4 2 -10 -3 -5 -17 -10 -31 -10 -39 0 -81 -27 -91 -57 -13
-42 -5 -69 30 -99 18 -15 30 -32 29 -38 -18 -55 -3 -99 39 -116 32 -14 70 -7
92 15 8 8 21 16 28 17 13 3 16 -3 18 -47 3 -67 96 -99 142 -50 13 13 27 25 30
25 10 0 29 -49 35 -88 3 -21 7 -42 9 -49 2 -7 -3 -19 -11 -28 -16 -16 -20 -16
-119 -19 -106 -2 -171 -49 -196 -141 -21 -75 33 -188 99 -209 17 -6 22 -15 22
-40 0 -44 -16 -63 -75 -86 -39 -16 -43 -19 -19 -16 17 2 41 9 52 15 39 21 44
14 38 -47 -9 -88 -16 -132 -33 -197 -8 -33 -16 -64 -18 -70 -1 -5 -7 -23 -13
-38 -7 -16 -12 -31 -12 -35 0 -18 -67 -132 -104 -178 -77 -96 -168 -142 -298
-151 -173 -11 -315 62 -390 203 l-23 44 35 33 c95 86 174 215 199 322 6 28 13
95 15 150 2 55 4 105 5 111 1 5 19 11 41 12 52 4 89 17 118 45 73 67 77 176
11 252 -30 33 -44 41 -90 50 -23 5 -39 21 -39 43 0 6 -1 15 -2 19 -2 4 24 8
57 9 60 1 108 14 119 32 3 5 -14 22 -38 37 -52 33 -110 106 -131 165 -24 68
-21 75 38 89 131 33 217 83 217 126 0 68 -169 109 -525 130 -27 1 -53 3 -56 4
-3 0 -5 16 -4 34 4 46 15 148 20 177 3 14 7 54 10 90 4 36 8 76 10 90 2 14 7
57 11 95 3 39 8 81 9 95 12 111 17 149 20 175 2 17 7 57 10 90 4 33 8 71 11
85 2 13 6 57 9 96 6 64 4 73 -12 77 -131 38 -162 47 -183 51 -14 3 -36 8 -50
11 -14 3 -36 7 -50 10 -14 3 -34 7 -45 9 -92 18 -268 36 -411 41 -46 2 -88 6
-92 9 -5 3 -12 3 -16 -1z m-506 -3028 c0 -47 -2 -85 -5 -85 -4 0 -22 16 -42
35 -20 19 -40 35 -45 35 -17 0 -7 26 24 63 17 20 39 37 50 37 16 0 18 -9 18
-85z"/>
</g>
</svg>
